<?xml version="1.0" standalone="no"?>
<!DOCTYPE svg PUBLIC "-//W3C//DTD SVG 20010904//EN"
 "http://www.w3.org/TR/2001/REC-SVG-20010904/DTD/svg10.dtd">
<svg version="1.0" xmlns="http://www.w3.org/2000/svg"
 width="700.000000pt" height="700.000000pt" viewBox="0 0 700.000000 700.000000"
 preserveAspectRatio="xMidYMid meet">
<metadata>
Created by potrace 1.11, written by Peter Selinger 2001-2013
</metadata>
<g transform="translate(0.000000,700.000000) scale(0.100000,-0.100000)"
fill="#000000" stroke="none">
<path d="M0 3500 l0 -3500 3500 0 3500 0 0 3500 0 3500 -3500 0 -3500 0 0
-3500z m3800 1991 c803 -137 1416 -694 1624 -1475 49 -184 61 -285 61 -511 -1
-230 -12 -322 -66 -520 -68 -248 -191 -496 -347 -699 -72 -93 -227 -250 -326
-330 -310 -249 -665 -394 -1071 -437 -119 -13 -377 -7 -485 11 -293 47 -553
147 -799 307 -654 423 -1001 1199 -886 1974 94 628 487 1181 1047 1474 236
123 471 194 743 225 120 13 373 4 505 -19z"/>
</g>
</svg>
