<svg xmlns="http://www.w3.org/2000/svg" viewBox="0 0 482.27 85.54"><defs><style>.cls-1{fill:#181424;}</style></defs><title>Asset 3</title><g id="Layer_2" data-name="Layer 2"><g id="Layer_1-2" data-name="Layer 1"><path class="cls-1" d="M155.35.65V28.19c-10-1.62-24.3,2.43-24.3,18.47V83.27h-24.3v-81h24.3V16.69C134.29,5.83,145.15.65,155.35.65Z"/><path class="cls-1" d="M160.21,42.77a42.93,42.93,0,0,1,85.86,0,42.93,42.93,0,0,1-85.86,0Zm61.56,0c0-11.5-8.1-19.12-18.63-19.12s-18.63,7.62-18.63,19.12,8.1,19.11,18.63,19.11S221.77,54.27,221.77,42.77Z"/><path class="cls-1" d="M343,2.27v81h-24.3V75.66c-5.35,6.15-13.29,9.88-24.14,9.88-21.22,0-38.72-18.63-38.72-42.77S273.29,0,294.51,0c10.85,0,18.79,3.73,24.14,9.88V2.27Zm-24.3,40.5c0-12.15-8.1-19.77-19.28-19.77s-19.28,7.62-19.28,19.77,8.1,19.76,19.28,19.76S318.65,54.92,318.65,42.77Z"/><path class="cls-1" d="M482.27,33.54V83.27H458V35.64c0-8.1-3.89-13.28-11.67-13.28-8.1,0-12.63,5.67-12.63,15.22V83.27h-24.3V35.64c0-8.1-3.89-13.28-11.67-13.28-8.1,0-12.63,5.67-12.63,15.22V83.27h-24.3v-81h24.3V9.72C388.79,4.21,395.92,0,406.77,0c9.56,0,16.69,3.89,21.23,10.69C432.53,4.21,440,0,451.49,0,470.12,0,482.27,13.28,482.27,33.54Z"/><circle class="cls-1" cx="41.25" cy="9.57" r="8.25"/><circle class="cls-1" cx="74.25" cy="9.57" r="8.25"/><circle class="cls-1" cx="41.25" cy="42.57" r="8.25"/><circle class="cls-1" cx="74.25" cy="42.57" r="8.25"/><circle class="cls-1" cx="8.25" cy="75.57" r="8.25"/><circle class="cls-1" cx="41.25" cy="75.57" r="8.25"/><circle class="cls-1" cx="8.25" cy="42.57" r="8.25"/></g></g></svg>