<svg version="1.1" id="el_MbPmrDra1" xmlns="http://www.w3.org/2000/svg" xmlns:xlink="http://www.w3.org/1999/xlink" x="0px" y="0px" viewBox="0 0 1111 589" style="enable-background:new 0 0 1111 589.5;" xml:space="preserve"><style>@-webkit-keyframes kf_el_qGG7oWTVKN_an_x2e-qACza{0%{opacity: 0;}5.56%{opacity: 0;}24.44%{opacity: 1;}100%{opacity: 1;}}@keyframes kf_el_qGG7oWTVKN_an_x2e-qACza{0%{opacity: 0;}5.56%{opacity: 0;}24.44%{opacity: 1;}100%{opacity: 1;}}@-webkit-keyframes kf_el_EOLbFz1tuxZ_an_E4JxLvR-3{16.67%{-webkit-transform: translate(526.3999786376953px, 317.24732208251953px) scale(0, 0) translate(-526.3999786376953px, -317.24732208251953px);transform: translate(526.3999786376953px, 317.24732208251953px) scale(0, 0) translate(-526.3999786376953px, -317.24732208251953px);}22.22%{-webkit-transform: translate(526.3999786376953px, 317.24732208251953px) scale(0, 0) translate(-526.3999786376953px, -317.24732208251953px);transform: translate(526.3999786376953px, 317.24732208251953px) scale(0, 0) translate(-526.3999786376953px, -317.24732208251953px);}41.11%{-webkit-transform: translate(526.3999786376953px, 317.24732208251953px) scale(1.2, 1.2) translate(-526.3999786376953px, -317.24732208251953px);transform: translate(526.3999786376953px, 317.24732208251953px) scale(1.2, 1.2) translate(-526.3999786376953px, -317.24732208251953px);}43.33%{-webkit-transform: translate(526.3999786376953px, 317.24732208251953px) scale(1, 1) translate(-526.3999786376953px, -317.24732208251953px);transform: translate(526.3999786376953px, 317.24732208251953px) scale(1, 1) translate(-526.3999786376953px, -317.24732208251953px);}0%{-webkit-transform: translate(526.3999786376953px, 317.24732208251953px) scale(0, 0) translate(-526.3999786376953px, -317.24732208251953px);transform: translate(526.3999786376953px, 317.24732208251953px) scale(0, 0) translate(-526.3999786376953px, -317.24732208251953px);}100%{-webkit-transform: translate(526.3999786376953px, 317.24732208251953px) scale(1, 1) translate(-526.3999786376953px, -317.24732208251953px);transform: translate(526.3999786376953px, 317.24732208251953px) scale(1, 1) translate(-526.3999786376953px, -317.24732208251953px);}}@keyframes kf_el_EOLbFz1tuxZ_an_E4JxLvR-3{16.67%{-webkit-transform: translate(526.3999786376953px, 317.24732208251953px) scale(0, 0) translate(-526.3999786376953px, -317.24732208251953px);transform: translate(526.3999786376953px, 317.24732208251953px) scale(0, 0) translate(-526.3999786376953px, -317.24732208251953px);}22.22%{-webkit-transform: translate(526.3999786376953px, 317.24732208251953px) scale(0, 0) translate(-526.3999786376953px, -317.24732208251953px);transform: translate(526.3999786376953px, 317.24732208251953px) scale(0, 0) translate(-526.3999786376953px, -317.24732208251953px);}41.11%{-webkit-transform: translate(526.3999786376953px, 317.24732208251953px) scale(1.2, 1.2) translate(-526.3999786376953px, -317.24732208251953px);transform: translate(526.3999786376953px, 317.24732208251953px) scale(1.2, 1.2) translate(-526.3999786376953px, -317.24732208251953px);}43.33%{-webkit-transform: translate(526.3999786376953px, 317.24732208251953px) scale(1, 1) translate(-526.3999786376953px, -317.24732208251953px);transform: translate(526.3999786376953px, 317.24732208251953px) scale(1, 1) translate(-526.3999786376953px, -317.24732208251953px);}0%{-webkit-transform: translate(526.3999786376953px, 317.24732208251953px) scale(0, 0) translate(-526.3999786376953px, -317.24732208251953px);transform: translate(526.3999786376953px, 317.24732208251953px) scale(0, 0) translate(-526.3999786376953px, -317.24732208251953px);}100%{-webkit-transform: translate(526.3999786376953px, 317.24732208251953px) scale(1, 1) translate(-526.3999786376953px, -317.24732208251953px);transform: translate(526.3999786376953px, 317.24732208251953px) scale(1, 1) translate(-526.3999786376953px, -317.24732208251953px);}}@-webkit-keyframes kf_el_dZDsyxleef_an_IxEzeIHwj4{16.67%{-webkit-transform: translate(275.8500061035156px, 280.19996643066406px) scale(0, 0) translate(-275.8500061035156px, -280.19996643066406px);transform: translate(275.8500061035156px, 280.19996643066406px) scale(0, 0) translate(-275.8500061035156px, -280.19996643066406px);}35.56%{-webkit-transform: translate(275.8500061035156px, 280.19996643066406px) scale(1.2, 1.2) translate(-275.8500061035156px, -280.19996643066406px);transform: translate(275.8500061035156px, 280.19996643066406px) scale(1.2, 1.2) translate(-275.8500061035156px, -280.19996643066406px);}37.78%{-webkit-transform: translate(275.8500061035156px, 280.19996643066406px) scale(1, 1) translate(-275.8500061035156px, -280.19996643066406px);transform: translate(275.8500061035156px, 280.19996643066406px) scale(1, 1) translate(-275.8500061035156px, -280.19996643066406px);}0%{-webkit-transform: translate(275.8500061035156px, 280.19996643066406px) scale(0, 0) translate(-275.8500061035156px, -280.19996643066406px);transform: translate(275.8500061035156px, 280.19996643066406px) scale(0, 0) translate(-275.8500061035156px, -280.19996643066406px);}100%{-webkit-transform: translate(275.8500061035156px, 280.19996643066406px) scale(1, 1) translate(-275.8500061035156px, -280.19996643066406px);transform: translate(275.8500061035156px, 280.19996643066406px) scale(1, 1) translate(-275.8500061035156px, -280.19996643066406px);}}@keyframes kf_el_dZDsyxleef_an_IxEzeIHwj4{16.67%{-webkit-transform: translate(275.8500061035156px, 280.19996643066406px) scale(0, 0) translate(-275.8500061035156px, -280.19996643066406px);transform: translate(275.8500061035156px, 280.19996643066406px) scale(0, 0) translate(-275.8500061035156px, -280.19996643066406px);}35.56%{-webkit-transform: translate(275.8500061035156px, 280.19996643066406px) scale(1.2, 1.2) translate(-275.8500061035156px, -280.19996643066406px);transform: translate(275.8500061035156px, 280.19996643066406px) scale(1.2, 1.2) translate(-275.8500061035156px, -280.19996643066406px);}37.78%{-webkit-transform: translate(275.8500061035156px, 280.19996643066406px) scale(1, 1) translate(-275.8500061035156px, -280.19996643066406px);transform: translate(275.8500061035156px, 280.19996643066406px) scale(1, 1) translate(-275.8500061035156px, -280.19996643066406px);}0%{-webkit-transform: translate(275.8500061035156px, 280.19996643066406px) scale(0, 0) translate(-275.8500061035156px, -280.19996643066406px);transform: translate(275.8500061035156px, 280.19996643066406px) scale(0, 0) translate(-275.8500061035156px, -280.19996643066406px);}100%{-webkit-transform: translate(275.8500061035156px, 280.19996643066406px) scale(1, 1) translate(-275.8500061035156px, -280.19996643066406px);transform: translate(275.8500061035156px, 280.19996643066406px) scale(1, 1) translate(-275.8500061035156px, -280.19996643066406px);}}@-webkit-keyframes kf_el_Soi2XF6i9h_an_a92VWYWWf{16.67%{-webkit-transform: translate(836.2000122070312px, 284.97367095947266px) scale(0, 0) translate(-836.2000122070312px, -284.97367095947266px);transform: translate(836.2000122070312px, 284.97367095947266px) scale(0, 0) translate(-836.2000122070312px, -284.97367095947266px);}26.67%{-webkit-transform: translate(836.2000122070312px, 284.97367095947266px) scale(0, 0) translate(-836.2000122070312px, -284.97367095947266px);transform: translate(836.2000122070312px, 284.97367095947266px) scale(0, 0) translate(-836.2000122070312px, -284.97367095947266px);}45.56%{-webkit-transform: translate(836.2000122070312px, 284.97367095947266px) scale(1.2, 1.2) translate(-836.2000122070312px, -284.97367095947266px);transform: translate(836.2000122070312px, 284.97367095947266px) scale(1.2, 1.2) translate(-836.2000122070312px, -284.97367095947266px);}47.78%{-webkit-transform: translate(836.2000122070312px, 284.97367095947266px) scale(1, 1) translate(-836.2000122070312px, -284.97367095947266px);transform: translate(836.2000122070312px, 284.97367095947266px) scale(1, 1) translate(-836.2000122070312px, -284.97367095947266px);}0%{-webkit-transform: translate(836.2000122070312px, 284.97367095947266px) scale(0, 0) translate(-836.2000122070312px, -284.97367095947266px);transform: translate(836.2000122070312px, 284.97367095947266px) scale(0, 0) translate(-836.2000122070312px, -284.97367095947266px);}100%{-webkit-transform: translate(836.2000122070312px, 284.97367095947266px) scale(1, 1) translate(-836.2000122070312px, -284.97367095947266px);transform: translate(836.2000122070312px, 284.97367095947266px) scale(1, 1) translate(-836.2000122070312px, -284.97367095947266px);}}@keyframes kf_el_Soi2XF6i9h_an_a92VWYWWf{16.67%{-webkit-transform: translate(836.2000122070312px, 284.97367095947266px) scale(0, 0) translate(-836.2000122070312px, -284.97367095947266px);transform: translate(836.2000122070312px, 284.97367095947266px) scale(0, 0) translate(-836.2000122070312px, -284.97367095947266px);}26.67%{-webkit-transform: translate(836.2000122070312px, 284.97367095947266px) scale(0, 0) translate(-836.2000122070312px, -284.97367095947266px);transform: translate(836.2000122070312px, 284.97367095947266px) scale(0, 0) translate(-836.2000122070312px, -284.97367095947266px);}45.56%{-webkit-transform: translate(836.2000122070312px, 284.97367095947266px) scale(1.2, 1.2) translate(-836.2000122070312px, -284.97367095947266px);transform: translate(836.2000122070312px, 284.97367095947266px) scale(1.2, 1.2) translate(-836.2000122070312px, -284.97367095947266px);}47.78%{-webkit-transform: translate(836.2000122070312px, 284.97367095947266px) scale(1, 1) translate(-836.2000122070312px, -284.97367095947266px);transform: translate(836.2000122070312px, 284.97367095947266px) scale(1, 1) translate(-836.2000122070312px, -284.97367095947266px);}0%{-webkit-transform: translate(836.2000122070312px, 284.97367095947266px) scale(0, 0) translate(-836.2000122070312px, -284.97367095947266px);transform: translate(836.2000122070312px, 284.97367095947266px) scale(0, 0) translate(-836.2000122070312px, -284.97367095947266px);}100%{-webkit-transform: translate(836.2000122070312px, 284.97367095947266px) scale(1, 1) translate(-836.2000122070312px, -284.97367095947266px);transform: translate(836.2000122070312px, 284.97367095947266px) scale(1, 1) translate(-836.2000122070312px, -284.97367095947266px);}}#el_MbPmrDra1 *{-webkit-animation-duration: 3s;animation-duration: 3s;-webkit-animation-iteration-count: 1;animation-iteration-count: 1;-webkit-animation-timing-function: cubic-bezier(0, 0, 1, 1);animation-timing-function: cubic-bezier(0, 0, 1, 1);}#el_qGG7oWTVKN{fill: #5B5B72;-webkit-animation-fill-mode: forwards;animation-fill-mode: forwards;opacity: 0;-webkit-animation-name: kf_el_qGG7oWTVKN_an_x2e-qACza;animation-name: kf_el_qGG7oWTVKN_an_x2e-qACza;-webkit-animation-timing-function: cubic-bezier(0, 0, 1, 1);animation-timing-function: cubic-bezier(0, 0, 1, 1);}#el_ygxDBmEc0O{fill: url(#SVGID_1_);}#el_xa1F8pftIT{fill: url(#SVGID_2_);}#el_8iV59QIC7P{fill: url(#SVGID_3_);}#el_Zi7dPUkNnj{fill: url(#SVGID_4_);}#el_lSh-91Hqgs{fill: url(#SVGID_5_);}#el_B2oDta54-S{opacity: 0.1;enable-background: new;}#el_5-kdab1XYP{fill: #181024;}#el_KTSe2tQray{fill: #181024;}#el_Wy8AzTsubl{fill: #FFFFFF;}#el_1SJ7yweJyn{fill: #281D38;}#el__-CGnfVFMl{fill: #FFFFFF;}#el_4ywvdZtvl4{fill: #281D38;}#el_tT151sPSltB{fill: #181024;}#el_YcvaP81fJA0{fill: #FFFFFF;}#el_ZETU6xZsHM7{fill: #281D38;}#el_tBRYAoTedFw{fill: #281D38;}#el_BxCUKVJYPY3{fill: #281D38;}#el_7R71PhcarP2{fill: #281D38;}#el_CJnaF1NRsFF{fill: #281D38;}#el_pBgK0gAtLjM{fill: #181024;}#el_Soi2XF6i9h_an_a92VWYWWf{-webkit-animation-fill-mode: forwards;animation-fill-mode: forwards;-webkit-transform: translate(836.2000122070312px, 284.97367095947266px) scale(0, 0) translate(-836.2000122070312px, -284.97367095947266px);transform: translate(836.2000122070312px, 284.97367095947266px) scale(0, 0) translate(-836.2000122070312px, -284.97367095947266px);-webkit-animation-name: kf_el_Soi2XF6i9h_an_a92VWYWWf;animation-name: kf_el_Soi2XF6i9h_an_a92VWYWWf;-webkit-animation-timing-function: cubic-bezier(0.42, 0, 0.58, 1);animation-timing-function: cubic-bezier(0.42, 0, 0.58, 1);}#el_Soi2XF6i9h_an_mCvON2x-u{-webkit-transform: translate(619.800048828125px, 81.54730987548828px) translate(-619.800048828125px, -81.54730987548828px) translate(100px, 100px);transform: translate(619.800048828125px, 81.54730987548828px) translate(-619.800048828125px, -81.54730987548828px) translate(100px, 100px);}#el_dZDsyxleef_an_iwViuSWXh{-webkit-transform: translate(275.8500061035156px, 280.19996643066406px) translate(-275.8500061035156px, -280.19996643066406px) translate(-100px, 100px);transform: translate(275.8500061035156px, 280.19996643066406px) translate(-275.8500061035156px, -280.19996643066406px) translate(-100px, 100px);}#el_dZDsyxleef_an_IxEzeIHwj4{-webkit-animation-fill-mode: forwards;animation-fill-mode: forwards;-webkit-transform: translate(275.8500061035156px, 280.19996643066406px) scale(0, 0) translate(-275.8500061035156px, -280.19996643066406px);transform: translate(275.8500061035156px, 280.19996643066406px) scale(0, 0) translate(-275.8500061035156px, -280.19996643066406px);-webkit-animation-name: kf_el_dZDsyxleef_an_IxEzeIHwj4;animation-name: kf_el_dZDsyxleef_an_IxEzeIHwj4;-webkit-animation-timing-function: cubic-bezier(0.42, 0, 0.58, 1);animation-timing-function: cubic-bezier(0.42, 0, 0.58, 1);}#el_EOLbFz1tuxZ_an_E4JxLvR-3{-webkit-animation-fill-mode: forwards;animation-fill-mode: forwards;-webkit-transform: translate(526.3999786376953px, 317.24732208251953px) scale(0, 0) translate(-526.3999786376953px, -317.24732208251953px);transform: translate(526.3999786376953px, 317.24732208251953px) scale(0, 0) translate(-526.3999786376953px, -317.24732208251953px);-webkit-animation-name: kf_el_EOLbFz1tuxZ_an_E4JxLvR-3;animation-name: kf_el_EOLbFz1tuxZ_an_E4JxLvR-3;-webkit-animation-timing-function: cubic-bezier(0.42, 0, 0.58, 1);animation-timing-function: cubic-bezier(0.42, 0, 0.58, 1);}</style>

<title>community</title>
<path d="M47.1,80.6c1.8,11.4,6.4,22.5,6.4,34c0.2,37.7-45.6,60.9-52.7,98c-4.2,22,6.6,44.5,21.8,60.9&#10;&#9;s34.6,28.2,52.4,41.7c49.4,37.4,87.5,87.8,110,145.5c4.5,11.6,8.4,23.6,9.7,35.9c0.9,9,0.5,18.2,2.6,27&#10;&#9;c8.4,34.9,50.7,48.4,86.5,50.7c57.7,3.6,115.4-6.1,168.7-28.2c12-5,24.4-10.7,37.3-9.3c10.3,1.1,19.5,6.7,28.5,11.8&#10;&#9;c26.6,14.9,55,26.6,84.4,34.7c16.3,4.5,33.4,7.9,50.1,5c50-8.8,76.6-69.5,125.6-82.7c33.9-9.2,69.3,6.8,99.7,24.4s61.9,37.8,97,37.9&#10;&#9;c46.9,0.1,85.4-35.4,117.2-69.9c6.7-7.2,13.4-14.8,16.6-24.1c6.4-18.9-4-40.1-19.4-52.8s-34.9-19-53.5-26.3&#10;&#9;c-31.5-12.3-61.6-28-89.8-46.9c-18.2-12.2-35.8-26-48.3-44c-10.7-15.5-17.1-33.5-24.3-51c-15.7-38.2-38-77-75.2-94.9&#10;&#9;c-30.3-14.6-65.6-13-99.3-13.4c-49.6-0.5-100.5-6.5-144.5-29.5C517.5,96,487,65.4,449.3,47.1c-60-29.1-128.6-23.4-193.2-22.3&#10;&#9;c-31.1,0.5-68,3.6-97.8-6.6c-22.1-7.5-33.4-22.9-58.8-16.7C64.7,9.9,41.6,45.4,47.1,80.6z" id="el_qGG7oWTVKN"/>
<linearGradient id="SVGID_1_" gradientUnits="userSpaceOnUse" x1="237.99" y1="-64.71" x2="237.99" y2="-64.06" gradientTransform="matrix(1 0 0 -1 -44.49 260.77)">
	<stop offset="0" style="stop-color:#808080;stop-opacity:0.25"/>
	<stop offset="0.54" style="stop-color:#808080;stop-opacity:0.12"/>
	<stop offset="1" style="stop-color:#808080;stop-opacity:0.1"/>
</linearGradient>
<path d="M193.5,325.5v-0.6V325.5z" id="el_ygxDBmEc0O"/>
<linearGradient id="SVGID_2_" gradientUnits="userSpaceOnUse" x1="237.89" y1="-64.06" x2="237.89" y2="-63.38" gradientTransform="matrix(1 0 0 -1 -44.49 260.77)">
	<stop offset="0" style="stop-color:#808080;stop-opacity:0.25"/>
	<stop offset="0.54" style="stop-color:#808080;stop-opacity:0.12"/>
	<stop offset="1" style="stop-color:#808080;stop-opacity:0.1"/>
</linearGradient>
<path d="M193.4,324.8v-0.7V324.8z" id="el_xa1F8pftIT"/>
<linearGradient id="SVGID_3_" gradientUnits="userSpaceOnUse" x1="237.89" y1="-63.03" x2="237.89" y2="-63.03" gradientTransform="matrix(1 0 0 -1 -44.49 260.77)">
	<stop offset="0" style="stop-color:#808080;stop-opacity:0.25"/>
	<stop offset="0.54" style="stop-color:#808080;stop-opacity:0.12"/>
	<stop offset="1" style="stop-color:#808080;stop-opacity:0.1"/>
</linearGradient>
<path d="M193.4,323.8" id="el_8iV59QIC7P"/>
<linearGradient id="SVGID_4_" gradientUnits="userSpaceOnUse" x1="237.89" y1="-63.43" x2="237.89" y2="-63.43" gradientTransform="matrix(1 0 0 -1 -44.49 260.77)">
	<stop offset="0" style="stop-color:#808080;stop-opacity:0.25"/>
	<stop offset="0.54" style="stop-color:#808080;stop-opacity:0.12"/>
	<stop offset="1" style="stop-color:#808080;stop-opacity:0.1"/>
</linearGradient>
<path d="M193.4,324.2L193.4,324.2z" id="el_Zi7dPUkNnj"/>
<linearGradient id="SVGID_5_" gradientUnits="userSpaceOnUse" x1="237.89" y1="-63.23" x2="237.89" y2="-63.23" gradientTransform="matrix(1 0 0 -1 -44.49 260.77)">
	<stop offset="0" style="stop-color:#808080;stop-opacity:0.25"/>
	<stop offset="0.54" style="stop-color:#808080;stop-opacity:0.12"/>
	<stop offset="1" style="stop-color:#808080;stop-opacity:0.1"/>
</linearGradient>
<path d="M193.4,324L193.4,324z" id="el_lSh-91Hqgs"/>
<path d="M787.8,319.4c0-0.2,0-0.3,0-0.5l0.1-0.2C787.8,319,787.8,319.2,787.8,319.4z" id="el_B2oDta54-S"/>
<g id="el_Soi2XF6i9h_an_a92VWYWWf" data-animator-group="true" data-animator-type="2"><g id="el_Soi2XF6i9h">
	<path d="M787.8,321.9c-0.4,2.5-0.4,5.2-0.2,7.9c0-0.3,0-0.7,0.1-1C787.8,326.5,787.9,324.2,787.8,321.9z" id="el_5-kdab1XYP"/>
	<path d="M787.8,321.5c0-0.7-0.1-1.4-0.1-2.1c0-0.2,0-0.3,0-0.5c-0.1-1.6-0.2-3.2-0.4-4.8c-0.1-0.7-0.2-1.4-0.3-2.1&#10;&#9;&#9;c-30.7-14.7-52-46-52.3-82.2c4.3,2.8,10,3.7,15.2,3.8c10.2,0.2,20.6-1.7,29.5-6.7c19-10.7,29.8-34.4,50.9-39.9&#10;&#9;&#9;c-8.8,15.3-21.9,27.7-37.7,35.6c8.7,6.4,21.2,3.2,30.1-2.9c8.9-6.1,15.9-14.7,25.2-20.1c-2.9,10.6-8.8,20.1-16.8,27.6&#10;&#9;&#9;c14.7,0.7,28.2-8.3,38.9-18.4c7.8-7.3,14.9-15.7,18.9-25.6c2.7-6.5,3.8-12.7,3.6-18.5c16.2,16.6,26.2,39.3,26.2,64.3&#10;&#9;&#9;c0,32.7-17.1,61.4-42.8,77.7c0.2,0.5,0.4,1.1,0.7,1.6c0.7,1.6,1.4,3.3,2.2,4.9c3.1,3.6,33.3,37.9,79.7,41.3c0.4,0,0.8,0.1,1.2,0.1&#10;&#9;&#9;c-1.4-5.2-1.5-10.6,0.4-15.6c3-7.6,10.2-13.2,12.7-21c4.7-14.5-8-28.1-15.7-41.2c-7.1-12.2-10.4-26.2-9.3-40.3&#10;&#9;&#9;c1.2-15.1,7.4-29.6,7.8-44.7c0.4-14.1-4.2-27.9-8.7-41.2c-3.7-11.1-7.5-22.2-13.8-32.1c-11.9-18.6-33.1-30.2-54.9-32.2&#10;&#9;&#9;c-10.3-0.9-20.3,2.4-30.5,1.1c-13.7-1.8-27-5.4-41.3-5.8c-13.6-0.4-28.6,1.3-37.9,11.3c-7.1,7.6-9.3,18.6-15.8,26.8&#10;&#9;&#9;c-9.2,11.6-25.3,15.5-35.4,26.2c-8.9,9.6-12.1,23.3-8.4,35.9c1.4,4.6,3.7,8.8,5.2,13.3c6.3,19-1.9,39.2-7,58.6&#10;&#9;&#9;c-0.6,1.6-0.7,3.3-0.3,4.9c0.8,2.4,3.3,3.6,5.3,5c6.7,4.6,10.2,12.9,10.8,21c0.6,8.1-1.2,16.2-3.1,24.1&#10;&#9;&#9;c-4.9,21-11.1,43.6-28.2,56.8c-3.1,2.4-6.6,4.6-9.7,7c10-4,20.7-6.4,31.9-7.1C761,362.2,786.1,324.2,787.8,321.5z" id="el_KTSe2tQray"/>
	<path d="M875.9,306.7c25.7-16.3,42.8-45,42.8-77.7c0-25-10-47.7-26.2-64.3c0.2,5.8-0.9,12-3.6,18.5&#10;&#9;&#9;c-4,9.9-11.1,18.3-18.9,25.6c-10.7,10.1-24.2,19.1-38.9,18.4c8-7.5,13.9-17,16.8-27.6c-9.3,5.4-16.3,14-25.2,20.1&#10;&#9;&#9;c-8.9,6.1-21.4,9.3-30.1,2.9c15.8-7.9,28.9-20.3,37.7-35.6c-21.1,5.5-31.9,29.2-50.9,39.9c-8.9,5-19.3,6.9-29.5,6.7&#10;&#9;&#9;c-5.2-0.1-10.9-1-15.2-3.8c0.3,36.3,21.6,67.5,52.3,82.2c0.1,0.7,0.2,1.4,0.3,2.1c0.2,1.6,0.3,3.2,0.4,4.8c0,0.2,0,0.3,0,0.5&#10;&#9;&#9;c0,0.7,0.1,1.4,0.1,2.1c0.1-0.1,0.1-0.2,0.1-0.2c0,0.2-0.1,0.4-0.1,0.6c0.1,2.3,0,4.6-0.1,6.9c0,0.3,0,0.7-0.1,1&#10;&#9;&#9;c1.3,14.9,11.6,33.6,30.6,59.7c8,11,11.4,26.4,12.5,41.8l1.8,1.3l9-5.4c1-17,4.4-34.2,12.5-46.3c22.9-34.2,27.1-50.2,24.5-68&#10;&#9;&#9;c0,0,0.1,0.1,0.3,0.3c-0.8-1.6-1.4-3.3-2.2-4.9C876.4,307.8,876.2,307.2,875.9,306.7z" id="el_Wy8AzTsubl"/>
	<path d="M959.7,354.6c-0.4,0-0.8-0.1-1.2-0.1c-46.4-3.4-76.7-37.7-79.7-41.3c-0.2-0.2-0.3-0.3-0.3-0.3&#10;&#9;&#9;c2.6,17.8-1.6,33.8-24.5,68c-8.1,12.1-11.5,29.3-12.5,46.3l-9,5.4l-1.8-1.3c-1.1-15.4-4.5-30.8-12.5-41.8&#10;&#9;&#9;c-19-26.1-29.2-44.7-30.6-59.7c-0.2-2.8-0.2-5.4,0.2-7.9c0-0.2,0.1-0.4,0.1-0.6c0,0,0,0.1-0.1,0.2c-1.7,2.7-26.8,40.8-74,43.9&#10;&#9;&#9;c-11.2,0.8-21.9,3.1-31.9,7.1c-33.9,13.5-59.1,45.2-62.1,94.1l15.7,21.5H790l-0.1,0.3h247l15.7-23.5&#10;&#9;&#9;C1048.6,396.4,1008.2,358.7,959.7,354.6z" id="el_1SJ7yweJyn"/>
</g></g>
<g id="el_dZDsyxleef_an_IxEzeIHwj4" data-animator-group="true" data-animator-type="2"><g id="el_dZDsyxleef">
	<path d="M209.2,385.2c1.4,4.8,6.6,10.4,12.9,15.7l0.4,0.3c15.9,13.3,38.6,14.9,56.1,3.8c8.9-5.6,17.4-11.8,25.6-18.4&#10;&#9;&#9;c11.6-9.6,15.3-22.6,15.7-34c0.2-7.6-0.7-15.2-2.7-22.5c-0.6-2.1-1-3.3-1.1-3.4l0.1,0.1c-0.8-3-1.6-5.9-2.3-9&#10;&#9;&#9;c-0.1-0.6-0.3-1.2-0.4-1.8c13.6-10,24.6-23.4,31.8-38.9c-4.5-2.4-8.6-5.3-12.2-8.9c-7.9-8-12.6-19.3-11.5-30.4c0.3-3.3,1-7-1.2-9.4&#10;&#9;&#9;c-0.9-0.9-2-1.6-3.2-2.2c-8.9-5.2-12.3-16.3-14.9-26.3c-16.7,2.9-34.2-2.9-46.8-14.2c-4.9-4.4-9.7-15.9-15.7-18&#10;&#9;&#9;c-7-2.4-16.2,5.9-23.7,6c-5.2,0.1-10.6-1.6-15.6-0.2c-6.7,1.9-10.8,9.1-11.8,16c-1,6.9,0.3,14,0.4,21c0.2,12.2-2.9,24.1-6.1,35.9&#10;&#9;&#9;c-0.7,3.3-1.9,6.4-3.5,9.3c-2.5,4-6.6,6.6-11,8.3c-3.3,1.2-6.7,1.9-10.1,2.1c7.2,22.1,21.8,40.8,41,53.2c0,0.7,0,1.4-0.1,2&#10;&#9;&#9;c0,1.1,0,2.2-0.1,3.3c0,0.6-0.1,1.2-0.1,1.8c1.2,13.9,8.7,46,9.7,56.8C208.9,383.9,209,384.6,209.2,385.2z" id="el__-CGnfVFMl"/>
	<path d="M478.7,435.4c-4.6-10.1-10.7-19.4-18-27.7c-3.7-4-7.7-7.6-12.1-10.8c-5.5-3.9-11.5-6.9-17.8-9&#10;&#9;&#9;c-54.2-17.6-113.3-60.6-113.3-60.6l-1.3-0.5l-0.1-0.1c0.1,0.1,0.5,1.3,1.1,3.4c2,7.3,2.9,14.9,2.7,22.5c-0.4,11.4-4.1,24.4-15.7,34&#10;&#9;&#9;c-8.2,6.6-16.7,12.8-25.6,18.4c-17.5,11.1-40.2,9.5-56.1-3.8l-0.4-0.3c-6.3-5.3-11.5-10.9-12.9-15.7c-0.2-0.6-0.3-1.3-0.4-1.9&#10;&#9;&#9;c-1-10.7-8.5-42.9-9.7-56.8c0-0.5-0.1-0.9-0.1-1.3c0,0-34.3,44.6-65.9,46.3c-16.9,0.8-31.6,12.3-42.8,25.3&#10;&#9;&#9;c-13.4,15.6-21.7,33.6-22.4,38.6c-1.3,9.1-10.4,53.5-10.4,53.5h436.7C494.2,488.9,491.2,461.8,478.7,435.4z" id="el_4ywvdZtvl4"/>
	<path d="M168.5,264c4.4-1.7,8.5-4.3,11-8.3c1.6-2.9,2.8-6,3.5-9.3c3.2-11.8,6.3-23.7,6.1-35.9c-0.1-7-1.4-14.1-0.4-21&#10;&#9;&#9;c1-6.9,5.1-14.1,11.8-16c5-1.4,10.4,0.3,15.6,0.2c7.5-0.1,16.7-8.4,23.7-6c6,2.1,10.8,13.6,15.7,18c12.6,11.3,30.1,17.1,46.8,14.2&#10;&#9;&#9;c2.6,10,6,21.1,14.9,26.3c1.2,0.6,2.3,1.3,3.2,2.2c2.2,2.4,1.5,6.1,1.2,9.4c-1.1,11.1,3.6,22.4,11.5,30.4c3.6,3.6,7.7,6.6,12.2,8.9&#10;&#9;&#9;c5.4,2.9,11.3,4.9,17.2,6.2c2.7,0.5,5.7,0.9,8-0.6c1.6-1.2,2.7-2.8,3.3-4.7c3-8.1,1.8-17.2-0.8-25.5s-6.3-16.2-8.2-24.6&#10;&#9;&#9;c-0.1-0.3-0.1-0.7-0.2-1c4.2-12.1,6.5-25,6.5-38.6c0-7.5-0.7-14.8-2.1-21.9c0.9-6.7,1.3-13.6-0.3-20.1c-2.5-9.6-9.5-17.3-16.2-24.5&#10;&#9;&#9;c-2.6-2.8-5.2-5.6-8.2-8c-21.4-25.9-53.8-42.3-90-42.3c-64.5,0-116.8,52.3-116.8,116.8c0,14.8,2.8,29,7.8,42&#10;&#9;&#9;c-0.9,6.7-3.5,13.1-8.3,17.9c-2.4,2.4-5.7,5.5-4.2,8.6c0.5,0.9,1.2,1.6,2,2.2c6.8,5.2,15.3,7.6,23.6,7.1&#10;&#9;&#9;C161.8,265.9,165.2,265.2,168.5,264z" id="el_tT151sPSltB"/>
</g></g>
<g id="el_EOLbFz1tuxZ_an_E4JxLvR-3" data-animator-group="true" data-animator-type="2"><g id="el_EOLbFz1tuxZ">
	<path d="M475.4,352.9c0-0.7,0-1.2,0-1.9c-10.5-4.4-20.1-10.7-28.3-18.4c0.1,3.9,0.6,7.6,1.7,11.3c2,6.7,5.6,12.5,9.8,18&#10;&#9;&#9;c0.8,1.1,1.7,2.2,2.6,3.2c4.2,5.2,8.9,10.3,12.9,15.7c0,0,0.1,0.1,0.1,0.1c0,0,0-0.1,0-0.1C475.2,371.5,475.6,362.2,475.4,352.9z" id="el_Le15VqUkphW"/>
	<path d="M584.7,325.2c0,0.6,0,1.3,0,2c0,3,0,6.1,0.1,9.2c4.6-8.1,8.8-16.1,9.6-24.6c0-0.1,0-0.2,0-0.3c-2.8,4.8-6.1,9.4-9.7,13.6&#10;&#9;&#9;C584.7,325.1,584.7,325.2,584.7,325.2z" id="el_GFNuMtShfRY"/>
	<path d="M564.6,432.6c0.6-5.2,6.1-10,13.3-14.1c2.3-1.3,4.7-2.5,7.1-3.6l0.4-0.2c0,0,0,0,0,0&#10;&#9;&#9;c-3.5-8.6-7.1-17.2-9.6-25.8c-1.7-5.8-2.7-11.7-2.9-17.7c0-1.6,0-3.2,0.2-4.8c0.1-0.9,0.2-1.9,0.3-2.8c0.2-1.5,0.5-3,0.9-4.4&#10;&#9;&#9;c2-7.9,6.3-15.3,10.4-22.6c0-0.1,0.1-0.1,0.1-0.2c-0.1-3.2-0.1-6.2-0.1-9.2c0-0.7,0-1.4,0-2c0,0,0-0.1,0-0.1&#10;&#9;&#9;c3.6-4.2,6.9-8.8,9.7-13.6c0.1-0.5,0.1-1.1,0.1-1.7c0-1.8-0.1-3.7-0.4-5.5c-1-6.1-4.2-11.5-6.8-17.2c-0.3-0.6-0.5-1.1-0.8-1.7&#10;&#9;&#9;c-5.1-11.6-8-24-11.1-36.4c-0.9-3.5-1.8-7.1-2.7-10.6c-4.5-16.4-10.9-32.9-23-44.7c-12.1-11.8-31.5-17.7-46.7-10.1&#10;&#9;&#9;c-13.2,6.5-20.3,21.2-23.5,35.5c-3.2,14.3-3.5,29.3-7.6,43.3c-0.5,1.5-1,3.1-1.5,4.6c-1.9,5.3-4.2,10.5-6.6,15.7&#10;&#9;&#9;c-7.8,16.6-16.9,32.9-16.7,49.6v0.2c0,0,0,0.1,0,0.1c8.2,7.7,17.8,14,28.3,18.4c0,0.7,0,1.2,0,1.9c0.2,9.3-0.2,18.6-1.2,27.9&#10;&#9;&#9;c0,0,0,0.1,0,0.1c3,3.9,5.5,8.1,7.5,12.6c4.9,11.5,4.9,24.4,0.2,35.9c-1.1,2.6-2.4,5.2-3.9,7.7c-2.6,4.4-5.4,8.8-7.6,13.4&#10;&#9;&#9;c-0.8,1.5-1.4,3.1-2,4.7c0,0,0,0,0,0.1l0,0l48.4,69.9h9.5C536.5,503.6,563.1,445.9,564.6,432.6z" id="el_YcvaP81fJA0"/>
	<path d="M346.3,433.1c-0.1,0.1-0.2,0.2-0.3,0.3c-8.8,10.3-15.3,21.6-19,29.5c3.2-6.9,8.7-16.5,16-25.7&#10;&#9;&#9;C344,435.8,345.1,434.4,346.3,433.1z" id="el_ZETU6xZsHM7"/>
	<path d="M323.8,471.7C323.8,471.7,323.8,471.7,323.8,471.7c-1.3,9.1-10.4,53.5-10.4,53.5l0,0&#10;&#9;&#9;C313.4,525.2,322.5,480.8,323.8,471.7C323.8,471.7,323.8,471.7,323.8,471.7z" id="el_tBRYAoTedFw"/>
	<path d="M468.4,455.3c-5,12.9-6.1,27.1-10.2,40.3c-3.3,10.7-8.6,20.8-15.5,29.6h74.1L468.4,455.3L468.4,455.3z" id="el_BxCUKVJYPY3"/>
	<path d="M699.1,484.6c0.1,13.7,2.4,27.1,5.5,40.6h34.8c-1.6-21.6-3.3-40.7-5-53.5c-1.2-9.5-2.2-15.6-3.2-17&#10;&#9;&#9;c-2-2.9-7.4-6.7-14.8-10.7c-3.7-2-7.8-4.1-12.3-6.3c-1.6,14.5-4.6,28.9-5,43.5C699.1,482.3,699.1,483.4,699.1,484.6z" id="el_7R71PhcarP2"/>
	<path d="M581.6,509.8c1.9-18.4,11.3-35.6,12.7-53.9c0.1-1.3,0.2-2.7,0.2-4c0-0.3,0-0.6,0-0.9c-0.1-6.5-1.1-12.9-3-19.1&#10;&#9;&#9;c-1.7-5.8-3.7-11.4-6-17c0-0.1-0.1-0.1-0.1-0.2c0,0,0,0,0,0l-0.4,0.2c-2.4,1.1-4.8,2.3-7.1,3.6c-7.2,4.1-12.7,8.9-13.3,14.1&#10;&#9;&#9;c-1.5,13.3-28.1,71-38.3,92.6h55.3c-0.2-2.5-0.4-4.9-0.4-7.4C581.2,515.1,581.3,512.5,581.6,509.8z" id="el_CJnaF1NRsFF"/>
	<path d="M699.1,484.6c0-1.2,0-2.3,0-3.4c0.4-14.6,3.4-29,5-43.5c0,0,0-0.1,0-0.1c0.2-1.5,0.4-3,0.5-4.5s0.2-3,0.3-4.5&#10;&#9;&#9;c0.1-2.6,0.2-5.3,0.2-7.9c0.1-26.9-7.3-53.3-21.3-76.1c-9.5-15.4-16.6-34.5-16.7-52.7c0-0.1,0-0.1,0-0.2c0-1.5,0-2.9,0.1-4.3&#10;&#9;&#9;c1.2-21,10.1-41.4,10.3-62.3c0.1-1.7,0-3.5-0.1-5.2c-1.2-18.3-10-35.3-20.1-50.6c-7.6-11.5-16-22.5-26.9-30.9&#10;&#9;&#9;c-16.8-12.8-38.1-18.4-59.1-21.3c-21-2.9-40.1-5.7-61.2-7.1c-22.7-1.5-47.7-2.4-65.7,11.6c-23.4,18.2-24.7,53.5-42.6,77.2&#10;&#9;&#9;c-12,16-32,27.8-34.8,47.5c-0.2,1.8-0.3,3.5-0.3,5.3c0.2,9.1,3.8,18.1,7.2,26.7c6.7,16.8,12.8,34,14,52c0.2,2.1,0.2,4.3,0.2,6.4&#10;&#9;&#9;c-0.1,16-4.7,32.2-15.4,44c-6.3,6.8-14.3,11.9-20.8,18.5c-11.6,11.6-18.1,27.3-23.9,42.7c-2.3,6.2-4.6,12.5-6.7,18.9l0.9-1.4&#10;&#9;&#9;c6.4-9.9,14.5-18.7,23.8-26c0.1-0.1,0.2-0.2,0.3-0.3c-1.2,1.3-2.3,2.7-3.3,4c-7.3,9.2-12.8,18.8-16,25.7c-1.9,4-3,7.2-3.2,8.9&#10;&#9;&#9;c0,0,0,0,0,0c-1.3,9.1-10.4,53.5-10.4,53.5v0h129.3l0,0c6.9-8.8,12.2-18.9,15.5-29.6c4.1-13.3,5.2-27.5,10.2-40.3c0,0,0,0,0-0.1&#10;&#9;&#9;c0.6-1.6,1.2-3.2,2-4.7c2.2-4.6,5-9,7.6-13.4c1.5-2.5,2.8-5.1,3.9-7.7c4.7-11.5,4.7-24.4-0.2-35.9c-2-4.5-4.6-8.7-7.5-12.6&#10;&#9;&#9;c0,0-0.1-0.1-0.1-0.1c-4-5.4-8.7-10.5-12.9-15.7c-0.9-1-1.8-2.1-2.6-3.2c-4.2-5.5-7.8-11.3-9.8-18c-1.1-3.7-1.6-7.4-1.7-11.3&#10;&#9;&#9;c0,0,0-0.1,0-0.1v-0.2c-0.2-16.7,8.9-33,16.7-49.6c2.4-5.2,4.7-10.4,6.6-15.7c0.5-1.5,1-3.1,1.5-4.6c4.1-14,4.4-29,7.6-43.3&#10;&#9;&#9;c3.2-14.3,10.3-29,23.5-35.5c15.2-7.6,34.6-1.7,46.7,10.1c12.1,11.8,18.5,28.3,23,44.7c0.9,3.5,1.8,7.1,2.7,10.6&#10;&#9;&#9;c3.1,12.4,6,24.8,11.1,36.4c0.3,0.6,0.5,1.1,0.8,1.7c2.6,5.7,5.8,11.1,6.8,17.2c0.3,1.8,0.4,3.7,0.4,5.5c0,0.6,0,1.1-0.1,1.7&#10;&#9;&#9;c0,0.1,0,0.2,0,0.3c-0.8,8.5-5,16.5-9.6,24.6c0,0.1-0.1,0.1-0.1,0.2c-4.1,7.3-8.4,14.7-10.4,22.6c-0.4,1.4-0.7,2.9-0.9,4.4&#10;&#9;&#9;c-0.1,0.9-0.2,1.9-0.3,2.8c-0.2,1.6-0.2,3.2-0.2,4.8c0.2,6,1.2,11.9,2.9,17.7c2.5,8.6,6.1,17.2,9.6,25.8c0,0.1,0.1,0.1,0.1,0.2&#10;&#9;&#9;c2.3,5.6,4.3,11.2,6,17c1.9,6.2,2.9,12.6,3,19.1c0,0.3,0,0.6,0,0.9c0,1.3-0.1,2.7-0.2,4c-1.4,18.3-10.8,35.5-12.7,53.9&#10;&#9;&#9;c-0.3,2.7-0.4,5.3-0.4,8c0,2.5,0.2,4.9,0.4,7.4c0,0,0,0.1,0,0.1h123c0,0,0-0.1,0-0.1C701.5,511.7,699.2,498.3,699.1,484.6z" id="el_pBgK0gAtLjM"/>
</g></g>
</svg>